<svg xmlns="http://www.w3.org/2000/svg" xmlns:xlink="http://www.w3.org/1999/xlink" width="481" height="378" viewBox="0 0 4801 3780" stroke="#000" stroke-linecap="round" stroke-linejoin="round" fill="#fff" fill-rule="evenodd" font-family="Roboto" font-size="14" text-anchor="middle"><style><![CDATA[svg text{white-space:pre}.B{stroke:none}.C{fill:#000}.D{fill:none}.E{stroke:#f99}.F{stroke-width:10}.G{stroke-width:3.077}.H{font-size:60px}.I{stroke-width:5}.J{fill:#fffbcc}.K{fill-opacity:.54}.L{font-size:100px}.M{fill:#e0e0e0}.N{stroke:#6599cd}.O{stroke-width:20}]]></style><defs><style>@import url("https://vecta.io/fonts/roboto.css"); </style><path d="M5 9L0 0-5 9" id="A" class="D" fill="none"/><path d="M0 0l4 5h-8z" id="B" class="B" stroke="none"/><path id="C" d="M66 88h317v306H77v88L0 241 66 0z"/><path id="D" d="M62 86h325v319H73v91L-6 245 62-5z"/><path id="E" d="M316 88H0v306h306v88l77-241L316 0z"/></defs><g class="B M" stroke="none" fill="#e0e0e0"><path d="M314 1476h105.827v1360.63H314z"/><path d="M517.145 714.151l102.221 27.39-211.294 788.561-102.221-27.39z"/></g><g fill="#ffcd99" class="B" stroke="none"><path d="M3679 3630v151.181H2375.063V3630z"/><path d="M4812 3252v529.134H3508.063V3252zm-2097 0v529.134H1240.984V3252z"/><path d="M1486 2931v850.394H11.984V2931z"/></g><path d="M314 1495l208-775" class="D N O" fill="none" stroke="#6599cd" stroke-width="20"/><g class="B" stroke="none"><path d="M1523.102 16.13l60.7 86.688L583.792 803.033l-60.7-86.688z" class="M" fill="#e0e0e0"/><path fill="#ffcd99" d="M12 2156h302.362v1020.473H12z"/><g class="M" fill="#e0e0e0"><path d="M4443 2825v105.827H240.165V2825z"/><path d="M1467 77h105.827v3174.803H1467zm2873 1588h105.827v1247.244H4340zM2422.761 747.415l102.221-27.39 208.36 777.608-102.221 27.39z"/><path d="M2628 1495h105.827v2097.638H2628z"/><path d="M4444 1645v105.827H1465.732V1645zM1665 3250v105.827h-291.024V3250zm1805-414h105.827v755.906H3470z"/><path d="M3659 3581v105.827H2536.48V3581z"/></g></g><path d="M1524 21L522 720" class="D N O" fill="none" stroke="#6599cd" stroke-width="20"/><path d="M1464.099 106.96l60.7-86.688 1000.011 700.215-60.7 86.688z" class="B M" stroke="none" fill="#e0e0e0"/><path d="M1571 58l-5 1592m6-1595l-47-33m51 1629l2868-5v1285m-1 0H314V1495" class="D N O" fill="none" stroke="#6599cd" stroke-width="20"/><g transform="translate(140 1589)" onclick="rsirse(0.13,0.04)"><use xlink:href="#C" class="I J K" stroke-width="5" fill="#fffbcc" fill-opacity=".54"/><g transform="matrix(-.906308 -.422618 .422618 -.906308 316.920363 323.298269)" class="E" stroke="#f99"><path d="M0 0q107 30 58 160" class="D F" fill="none" stroke-width="10"/><use transform="matrix(-3.034136 -1.164696 1.164696 -3.034136 36.487911 364.262635)" x="16" xlink:href="#A" y="58" class="G" stroke-width="3.077"/></g><g transform="matrix(.939693 .34202 -.34202 .939693 124.918632 145.637881)" class="E" stroke="#f99"><path d="M19 7q85 40 30 179" class="D F" fill="none" stroke-width="10"/><use transform="matrix(1.269876 -2.991641 2.991641 1.269876 0 0)" xlink:href="#A" y="3" class="G" stroke-width="3.077"/></g></g><g transform="translate(140 2269)" onclick="rsirse(0.13,0)"><use xlink:href="#C" class="I J K" stroke-width="5" fill="#fffbcc" fill-opacity=".54"/><g transform="matrix(-.906308 -.422618 .422618 -.906308 316.920363 323.298269)" class="E" stroke="#f99"><path d="M0 0q107 30 58 160" class="D F" fill="none" stroke-width="10"/><use transform="matrix(-3.034136 -1.164696 1.164696 -3.034136 36.487911 364.262635)" x="16" xlink:href="#A" y="58" class="G" stroke-width="3.077"/></g></g><text class="B C L" white-space="pre" stroke="none" fill="#000" font-size="100px"><tspan x="446" y="3549">Sol</tspan><tspan x="2714" y="141">Enveloppe du </tspan><tspan x="2714" y="261">volume </tspan><tspan x="2714" y="381">protégé</tspan></text><g transform="translate(1581 417)"><path d="M1096 0q0 113-1087 113" class="D I" fill="none" stroke-width="5"/><use transform="matrix(0 -2 2 0 -114 114)" xlink:href="#B" y="57" class="C" fill="#000"/></g><text class="B C L" white-space="pre" stroke="none" fill="#000" font-size="100px"><tspan x="2015" y="844">Combles non</tspan><tspan x="2015" y="964">chauffés</tspan><tspan x="1240" y="2658">Dalle </tspan><tspan x="1240" y="2778">sur sol</tspan></text><text text-anchor="start" class="B C L" white-space="pre" stroke="none" fill="#000" font-size="100px"><tspan x="1583" y="3036">Vide</tspan><tspan x="1583" y="3156">sanitaire</tspan></text><text class="B C L" white-space="pre" stroke="none" fill="#000" font-size="100px"><tspan x="3092" y="3433">Cave non </tspan><tspan x="3092" y="3553">chauffé</tspan></text><g transform="matrix(.965926 .258819 -.258819 .965926 303.212928 836.084106)" onclick="rsirse(0.13,0.04)"><path d="M66 91h317v319H77v91L0 250 66 0z" class="I J K" stroke-width="5" fill="#fffbcc" fill-opacity=".54"/><g transform="matrix(-.906308 -.422618 .422618 -.906308 314.652508 336.017192)" class="E" stroke="#f99"><path d="M0 0q108 31 59 165" class="D F" fill="none" stroke-width="10"/><use transform="matrix(-3.034136 -1.164696 1.164696 -3.034136 34.15852 376.830907)" x="16" xlink:href="#A" y="60" class="G" stroke-width="3.077"/></g><g transform="matrix(.939693 .34202 -.34202 .939693 126.004999 152.476783)" class="E" stroke="#f99"><path d="M19 7q86 41 30 185" class="D F" fill="none" stroke-width="10"/><use transform="matrix(1.269876 -2.991641 2.991641 1.269876 0 0)" xlink:href="#A" y="3" class="G" stroke-width="3.077"/></g></g><g transform="matrix(.573576 .819152 -.819152 .573576 1074.234912 124.14785)" onclick="rsirse(0.10,0.04)"><use xlink:href="#D" class="I J K" stroke-width="5" fill="#fffbcc" fill-opacity=".54"/><g transform="matrix(-.906308 -.422618 .422618 -.906308 314.652508 336.017192)" class="E" stroke="#f99"><path d="M0 0q108 31 59 165" class="D F" fill="none" stroke-width="10"/><use transform="matrix(-3.034136 -1.164696 1.164696 -3.034136 34.15852 376.830907)" x="16" xlink:href="#A" y="60" class="G" stroke-width="3.077"/></g><g transform="matrix(.939693 .34202 -.34202 .939693 126.004999 152.476783)" class="E" stroke="#f99"><path d="M19 7q86 41 30 185" class="D F" fill="none" stroke-width="10"/><use transform="matrix(1.269876 -2.991641 2.991641 1.269876 0 0)" xlink:href="#A" y="3" class="G" stroke-width="3.077"/></g></g><g transform="translate(1354 902)" onclick="rsirse(0.13,0.13)"><path d="M299 387l-300 4V85h300V0l83 238-83 234z" class="I J K" stroke-width="5" fill="#fffbcc" fill-opacity=".54"/><g transform="matrix(.906308 .422618 -.422618 .906308 67.079637 154.701731)" class="E" stroke="#f99"><path d="M19 7q90 38 32 172" class="D F" fill="none" stroke-width="10"/><use transform="matrix(1.164696 -3.034136 3.034136 1.164696 0 0)" xlink:href="#A" y="3" class="G" stroke-width="3.077"/></g><g transform="matrix(.939693 -.34202 .34202 .939693 205.012986 173.277754)" class="E" stroke="#f99"><path d="M52 7q-86 38-30 169" class="D F" fill="none" stroke-width="10"/><use transform="matrix(1.217471 3.013348 -3.013348 1.217471 44.715629 -66.293646)" x="22" xlink:href="#A" y="3" class="G" stroke-width="3.077"/></g></g><g transform="matrix(0 -1 1 0 654 3101)" onclick="rsirse(0.13,0)"><use xlink:href="#C" onclick="rsirse(0.17,0)" class="I J K" stroke-width="5" fill="#fffbcc" fill-opacity=".54"/><g transform="matrix(-.906308 -.422618 .422618 -.906308 316.920363 323.298269)" class="E" stroke="#f99"><path d="M0 0q107 30 58 160" class="D F" fill="none" stroke-width="10"/><use transform="matrix(-3.034136 -1.164696 1.164696 -3.034136 36.487911 364.262635)" x="16" xlink:href="#A" y="58" class="G" stroke-width="3.077"/></g></g><g transform="matrix(0 1 -1 0 2347 1475)" onclick="rsirse(0.10,0.13)"><use xlink:href="#D" class="I J K" stroke-width="5" fill="#fffbcc" fill-opacity=".54"/><g transform="matrix(-.906308 -.422618 .422618 -.906308 314.652508 336.017192)" class="E" stroke="#f99"><path d="M0 0q108 31 59 165" class="D F" fill="none" stroke-width="10"/><use transform="matrix(-3.034136 -1.164696 1.164696 -3.034136 34.15852 376.830907)" x="16" xlink:href="#A" y="60" class="G" stroke-width="3.077"/></g><g transform="matrix(.939693 .34202 -.34202 .939693 126.004999 152.476783)" class="E" stroke="#f99"><path d="M19 7q86 41 30 185" class="D F" fill="none" stroke-width="10"/><use transform="matrix(1.269876 -2.991641 2.991641 1.269876 0 0)" xlink:href="#A" y="3" class="G" stroke-width="3.077"/></g></g><g transform="matrix(0 1 -1 0 3781 1476)" onclick="rsirse(0.10,0.04)"><use xlink:href="#D" class="I J K" stroke-width="5" fill="#fffbcc" fill-opacity=".54"/><g transform="matrix(-.906308 -.422618 .422618 -.906308 314.652508 336.017192)" class="E" stroke="#f99"><path d="M0 0q108 31 59 165" class="D F" fill="none" stroke-width="10"/><use transform="matrix(-3.034136 -1.164696 1.164696 -3.034136 34.15852 376.830907)" x="16" xlink:href="#A" y="60" class="G" stroke-width="3.077"/></g><g transform="matrix(.939693 .34202 -.34202 .939693 126.004999 152.476783)" class="E" stroke="#f99"><path d="M19 7q86 41 30 185" class="D F" fill="none" stroke-width="10"/><use transform="matrix(1.269876 -2.991641 2.991641 1.269876 0 0)" xlink:href="#A" y="3" class="G" stroke-width="3.077"/></g></g><g transform="translate(4221 2080)" onclick="rsirse(0.13,0.04)"><use xlink:href="#E" class="I J K" stroke-width="5" fill="#fffbcc" fill-opacity=".54"/><g transform="matrix(-.906308 .422618 -.422618 -.906308 134.146413 292.024517)" class="E" stroke="#f99"><path d="M74 0Q-33 30 15 160" class="D F" fill="none" stroke-width="10"/><use transform="matrix(-3.034136 1.164696 -1.164696 -3.034136 108.047226 337.47463)" x="7" xlink:href="#A" y="58" class="G" stroke-width="3.077"/></g><g transform="matrix(.939693 -.34202 .34202 .939693 191.302885 169.579291)" class="E" stroke="#f99"><path d="M52 7q-86 40-30 179" class="D F" fill="none" stroke-width="10"/><use transform="matrix(1.269876 2.991641 -2.991641 1.269876 43.562724 -65.816097)" x="22" xlink:href="#A" y="3" class="G" stroke-width="3.077"/></g></g><g transform="matrix(0 1 -1 0 4226 2723)" onclick="rsirse(0.17,0.04)"><use xlink:href="#E" class="I J K" stroke-width="5" fill="#fffbcc" fill-opacity=".54"/><g transform="matrix(-.906308 .422618 -.422618 -.906308 134.146413 292.024517)" class="E" stroke="#f99"><path d="M74 0Q-33 30 15 160" class="D F" fill="none" stroke-width="10"/><use transform="matrix(-3.034136 1.164696 -1.164696 -3.034136 108.047226 337.47463)" x="7" xlink:href="#A" y="58" class="G" stroke-width="3.077"/></g><g transform="matrix(.939693 -.34202 .34202 .939693 191.302885 169.579291)" class="E" stroke="#f99"><path d="M52 7q-86 40-30 179" class="D F" fill="none" stroke-width="10"/><use transform="matrix(1.269876 2.991641 -2.991641 1.269876 43.562724 -65.816097)" x="22" xlink:href="#A" y="3" class="G" stroke-width="3.077"/></g></g><g transform="matrix(0 1 -1 0 3319 2723)" onclick="rsirse(0.17,0.17)"><use xlink:href="#E" class="I J K" stroke-width="5" fill="#fffbcc" fill-opacity=".54"/><g transform="matrix(-.906308 .422618 -.422618 -.906308 134.146413 292.024517)" class="E" stroke="#f99"><path d="M74 0Q-33 30 15 160" class="D F" fill="none" stroke-width="10"/><use transform="matrix(-3.034136 1.164696 -1.164696 -3.034136 108.047226 337.47463)" x="7" xlink:href="#A" y="58" class="G" stroke-width="3.077"/></g><g transform="matrix(.939693 -.34202 .34202 .939693 191.302885 169.579291)" class="E" stroke="#f99"><path d="M52 7q-86 40-30 179" class="D F" fill="none" stroke-width="10"/><use transform="matrix(1.269876 2.991641 -2.991641 1.269876 43.562724 -65.816097)" x="22" xlink:href="#A" y="3" class="G" stroke-width="3.077"/></g></g><g transform="matrix(0 1 -1 0 2450 2723)" onclick="rsirse(0.17,0.17)"><use xlink:href="#E" class="I J K" stroke-width="5" fill="#fffbcc" fill-opacity=".54"/><g transform="matrix(-.906308 .422618 -.422618 -.906308 134.146413 292.024517)" class="E" stroke="#f99"><path d="M74 0Q-33 30 15 160" class="D F" fill="none" stroke-width="10"/><use transform="matrix(-3.034136 1.164696 -1.164696 -3.034136 108.047226 337.47463)" x="7" xlink:href="#A" y="58" class="G" stroke-width="3.077"/></g><g transform="matrix(.939693 -.34202 .34202 .939693 191.302885 169.579291)" class="E" stroke="#f99"><path d="M52 7q-86 40-30 179" class="D F" fill="none" stroke-width="10"/><use transform="matrix(1.269876 2.991641 -2.991641 1.269876 43.562724 -65.816097)" x="22" xlink:href="#A" y="3" class="G" stroke-width="3.077"/></g></g><text class="B C H" white-space="pre" stroke="none" fill="#000" font-size="60px"><tspan x="69" y="1854">0.04</tspan><tspan x="143" y="1098">0.04</tspan><tspan x="748" y="229">0.04</tspan><tspan x="3545" y="1439">0.04</tspan><tspan x="4698" y="2346">0.04</tspan><tspan x="1175" y="683">0.10</tspan><tspan x="740" y="1193">0.13</tspan><tspan x="1250" y="1155">0.13</tspan><tspan x="1836" y="1155">0.13</tspan><tspan x="627" y="1854">0.13</tspan><tspan x="627" y="2535">0.13</tspan><tspan x="910" y="2686">0.17</tspan><tspan x="2214" y="2686">0.17</tspan><tspan x="3102" y="2686">0.17</tspan><tspan x="3990" y="2686">0.17</tspan><tspan x="3972" y="3177">0.04</tspan><tspan x="3083" y="3177">0.17</tspan><tspan x="2195" y="3177">0.17</tspan><tspan x="4123" y="2346">0.13</tspan><tspan x="3537" y="1949">0.10</tspan><tspan x="2101" y="1949">0.10</tspan><tspan x="2101" y="1439">0.10</tspan></text></svg>